<svg width="1325" height="132" viewBox="0 0 1325 132" fill="none" xmlns="http://www.w3.org/2000/svg">
<path d="M0 50C0 22.3858 22.3858 0 50 0H1205C1271.27 0 1325 53.7258 1325 120C1325 126.627 1319.63 132 1313 132H25C11.1929 132 0 120.807 0 107V50Z" fill="url(#paint0_linear_12_181)"/>
<path d="M325.202 63.336C324.034 63.336 322.866 63.192 321.698 62.904C320.546 62.616 319.538 62.208 318.674 61.68L320.402 58.104C321.074 58.552 321.818 58.896 322.634 59.136C323.466 59.376 324.274 59.496 325.058 59.496C325.874 59.496 326.522 59.344 327.002 59.04C327.482 58.736 327.722 58.304 327.722 57.744C327.722 57.248 327.522 56.856 327.122 56.568C326.722 56.264 326.066 56.112 325.154 56.112H323.162V53.112L327.674 48.24L328.13 49.872H319.538V46.2H331.682V49.176L327.17 54.048L324.842 52.728H326.138C328.234 52.728 329.818 53.2 330.89 54.144C331.978 55.072 332.522 56.272 332.522 57.744C332.522 58.704 332.258 59.608 331.73 60.456C331.218 61.304 330.426 62 329.354 62.544C328.282 63.072 326.898 63.336 325.202 63.336ZM283.475 85V77.692H288.473V78.322H283.979L284.175 78.126V85H283.475ZM292.539 85.056C291.839 85.056 291.214 84.8973 290.663 84.58C290.122 84.2627 289.688 83.824 289.361 83.264C289.044 82.704 288.885 82.0647 288.885 81.346C288.885 80.618 289.044 79.9787 289.361 79.428C289.688 78.868 290.122 78.4293 290.663 78.112C291.214 77.7947 291.839 77.636 292.539 77.636C293.239 77.636 293.865 77.7947 294.415 78.112C294.966 78.4293 295.4 78.868 295.717 79.428C296.035 79.9787 296.193 80.618 296.193 81.346C296.193 82.0647 296.035 82.704 295.717 83.264C295.4 83.824 294.966 84.2627 294.415 84.58C293.865 84.8973 293.239 85.056 292.539 85.056ZM292.539 84.426C293.099 84.426 293.603 84.3 294.051 84.048C294.499 83.7867 294.849 83.4227 295.101 82.956C295.353 82.4893 295.479 81.9527 295.479 81.346C295.479 80.73 295.353 80.1933 295.101 79.736C294.849 79.2693 294.499 78.91 294.051 78.658C293.603 78.3967 293.099 78.266 292.539 78.266C291.979 78.266 291.475 78.3967 291.027 78.658C290.589 78.91 290.239 79.2693 289.977 79.736C289.725 80.1933 289.599 80.73 289.599 81.346C289.599 81.9527 289.725 82.4893 289.977 82.956C290.239 83.4227 290.589 83.7867 291.027 84.048C291.475 84.3 291.979 84.426 292.539 84.426ZM303.444 84.664V78.322H299.636L299.552 80.142C299.533 80.6553 299.5 81.1687 299.454 81.682C299.407 82.186 299.332 82.6527 299.23 83.082C299.127 83.502 298.982 83.8427 298.796 84.104C298.618 84.3653 298.385 84.51 298.096 84.538L297.396 84.384C297.694 84.4027 297.937 84.2953 298.124 84.062C298.31 83.8193 298.455 83.4927 298.558 83.082C298.66 82.6713 298.735 82.2093 298.782 81.696C298.838 81.1733 298.88 80.6413 298.908 80.1L299.006 77.692H304.144V84.664H303.444ZM297.074 86.82V84.384H305.32V86.82H304.662V85H297.746V86.82H297.074ZM311.951 85V83.334L311.923 83.082V80.338C311.923 79.6567 311.736 79.1387 311.363 78.784C310.999 78.4293 310.462 78.252 309.753 78.252C309.249 78.252 308.778 78.3407 308.339 78.518C307.91 78.686 307.541 78.9053 307.233 79.176L306.883 78.672C307.247 78.3453 307.686 78.0933 308.199 77.916C308.712 77.7293 309.249 77.636 309.809 77.636C310.714 77.636 311.41 77.8647 311.895 78.322C312.38 78.7793 312.623 79.4607 312.623 80.366V85H311.951ZM309.319 85.056C308.778 85.056 308.306 84.972 307.905 84.804C307.513 84.6267 307.21 84.3793 306.995 84.062C306.79 83.7447 306.687 83.3807 306.687 82.97C306.687 82.5967 306.771 82.2607 306.939 81.962C307.116 81.654 307.406 81.4067 307.807 81.22C308.208 81.024 308.745 80.926 309.417 80.926H312.105V81.472H309.431C308.675 81.472 308.143 81.612 307.835 81.892C307.536 82.172 307.387 82.522 307.387 82.942C307.387 83.4087 307.564 83.782 307.919 84.062C308.274 84.342 308.773 84.482 309.417 84.482C310.033 84.482 310.551 84.342 310.971 84.062C311.4 83.782 311.718 83.376 311.923 82.844L312.119 83.32C311.923 83.852 311.587 84.2767 311.111 84.594C310.644 84.902 310.047 85.056 309.319 85.056ZM322.745 85.056C322.101 85.056 321.517 84.9067 320.995 84.608C320.481 84.3093 320.071 83.8847 319.763 83.334C319.464 82.774 319.315 82.1113 319.315 81.346C319.315 80.5807 319.464 79.9227 319.763 79.372C320.071 78.812 320.481 78.3827 320.995 78.084C321.517 77.7853 322.101 77.636 322.745 77.636C323.435 77.636 324.051 77.7947 324.593 78.112C325.143 78.42 325.573 78.854 325.881 79.414C326.198 79.974 326.357 80.618 326.357 81.346C326.357 82.074 326.198 82.718 325.881 83.278C325.573 83.838 325.143 84.2767 324.593 84.594C324.051 84.902 323.435 85.056 322.745 85.056ZM319.077 87.716V77.692H319.749V80.086L319.637 81.36L319.777 82.634V87.716H319.077ZM322.703 84.426C323.263 84.426 323.767 84.3 324.215 84.048C324.663 83.7867 325.013 83.4227 325.265 82.956C325.526 82.4893 325.657 81.9527 325.657 81.346C325.657 80.73 325.526 80.1933 325.265 79.736C325.013 79.2693 324.663 78.91 324.215 78.658C323.767 78.3967 323.263 78.266 322.703 78.266C322.143 78.266 321.639 78.3967 321.191 78.658C320.752 78.91 320.402 79.2693 320.141 79.736C319.889 80.1933 319.763 80.73 319.763 81.346C319.763 81.9527 319.889 82.4893 320.141 82.956C320.402 83.4227 320.752 83.7867 321.191 84.048C321.639 84.3 322.143 84.426 322.703 84.426ZM333.17 85V83.334L333.142 83.082V80.338C333.142 79.6567 332.955 79.1387 332.582 78.784C332.218 78.4293 331.681 78.252 330.972 78.252C330.468 78.252 329.996 78.3407 329.558 78.518C329.128 78.686 328.76 78.9053 328.452 79.176L328.102 78.672C328.466 78.3453 328.904 78.0933 329.418 77.916C329.931 77.7293 330.468 77.636 331.028 77.636C331.933 77.636 332.628 77.8647 333.114 78.322C333.599 78.7793 333.842 79.4607 333.842 80.366V85H333.17ZM330.538 85.056C329.996 85.056 329.525 84.972 329.124 84.804C328.732 84.6267 328.428 84.3793 328.214 84.062C328.008 83.7447 327.906 83.3807 327.906 82.97C327.906 82.5967 327.99 82.2607 328.158 81.962C328.335 81.654 328.624 81.4067 329.026 81.22C329.427 81.024 329.964 80.926 330.636 80.926H333.324V81.472H330.65C329.894 81.472 329.362 81.612 329.054 81.892C328.755 82.172 328.606 82.522 328.606 82.942C328.606 83.4087 328.783 83.782 329.138 84.062C329.492 84.342 329.992 84.482 330.636 84.482C331.252 84.482 331.77 84.342 332.19 84.062C332.619 83.782 332.936 83.376 333.142 82.844L333.338 83.32C333.142 83.852 332.806 84.2767 332.33 84.594C331.863 84.902 331.266 85.056 330.538 85.056ZM339.878 85.07C339.29 85.07 338.767 84.9673 338.31 84.762C337.862 84.5567 337.479 84.2533 337.162 83.852C336.854 83.4507 336.616 82.956 336.448 82.368C336.28 81.7707 336.196 81.0847 336.196 80.31C336.196 79.554 336.27 78.9053 336.42 78.364C336.569 77.8133 336.765 77.3513 337.008 76.978C337.26 76.5953 337.544 76.2827 337.862 76.04C338.179 75.7973 338.506 75.606 338.842 75.466C339.187 75.3167 339.528 75.2047 339.864 75.13L343.098 74.36L343.21 75.018L340.13 75.732C339.915 75.788 339.663 75.8627 339.374 75.956C339.094 76.04 338.804 76.1753 338.506 76.362C338.216 76.5393 337.946 76.7913 337.694 77.118C337.451 77.4353 337.25 77.846 337.092 78.35C336.942 78.854 336.868 79.4793 336.868 80.226C336.868 80.366 336.872 80.478 336.882 80.562C336.891 80.646 336.9 80.7393 336.91 80.842C336.928 80.9353 336.947 81.0753 336.966 81.262L336.644 81.094C336.7 80.478 336.882 79.9367 337.19 79.47C337.498 79.0033 337.899 78.6393 338.394 78.378C338.888 78.1167 339.448 77.986 340.074 77.986C340.755 77.986 341.357 78.1353 341.88 78.434C342.412 78.7233 342.827 79.134 343.126 79.666C343.424 80.1887 343.574 80.7953 343.574 81.486C343.574 82.1767 343.42 82.7927 343.112 83.334C342.813 83.8753 342.384 84.3 341.824 84.608C341.273 84.916 340.624 85.07 339.878 85.07ZM339.99 84.468C340.55 84.468 341.044 84.342 341.474 84.09C341.912 83.8287 342.253 83.474 342.496 83.026C342.738 82.578 342.86 82.0693 342.86 81.5C342.86 80.9307 342.738 80.4313 342.496 80.002C342.253 79.5727 341.912 79.2367 341.474 78.994C341.044 78.742 340.545 78.616 339.976 78.616C339.416 78.616 338.916 78.7373 338.478 78.98C338.048 79.2227 337.712 79.5587 337.47 79.988C337.227 80.4173 337.106 80.9167 337.106 81.486C337.106 82.0553 337.227 82.564 337.47 83.012C337.722 83.46 338.062 83.8147 338.492 84.076C338.93 84.3373 339.43 84.468 339.99 84.468ZM348.785 85.056C348.085 85.056 347.46 84.8973 346.909 84.58C346.368 84.2627 345.934 83.824 345.607 83.264C345.29 82.704 345.131 82.0647 345.131 81.346C345.131 80.618 345.29 79.9787 345.607 79.428C345.934 78.868 346.368 78.4293 346.909 78.112C347.46 77.7947 348.085 77.636 348.785 77.636C349.485 77.636 350.111 77.7947 350.661 78.112C351.212 78.4293 351.646 78.868 351.963 79.428C352.281 79.9787 352.439 80.618 352.439 81.346C352.439 82.0647 352.281 82.704 351.963 83.264C351.646 83.824 351.212 84.2627 350.661 84.58C350.111 84.8973 349.485 85.056 348.785 85.056ZM348.785 84.426C349.345 84.426 349.849 84.3 350.297 84.048C350.745 83.7867 351.095 83.4227 351.347 82.956C351.599 82.4893 351.725 81.9527 351.725 81.346C351.725 80.73 351.599 80.1933 351.347 79.736C351.095 79.2693 350.745 78.91 350.297 78.658C349.849 78.3967 349.345 78.266 348.785 78.266C348.225 78.266 347.721 78.3967 347.273 78.658C346.835 78.91 346.485 79.2693 346.223 79.736C345.971 80.1933 345.845 80.73 345.845 81.346C345.845 81.9527 345.971 82.4893 346.223 82.956C346.485 83.4227 346.835 83.7867 347.273 84.048C347.721 84.3 348.225 84.426 348.785 84.426ZM355.776 85V78.112L355.972 78.322H352.92V77.692H359.332V78.322H356.28L356.476 78.112V85H355.776ZM367.844 85V77.692H368.544V85H367.844ZM363.714 80.352C364.629 80.3613 365.32 80.562 365.786 80.954C366.262 81.3367 366.5 81.9013 366.5 82.648C366.5 83.4227 366.248 84.0153 365.744 84.426C365.24 84.8367 364.512 85.0373 363.56 85.028L360.83 85V77.692H361.53V80.324L363.714 80.352ZM363.532 84.468C364.279 84.4773 364.844 84.328 365.226 84.02C365.609 83.712 365.8 83.2547 365.8 82.648C365.8 82.06 365.609 81.6213 365.226 81.332C364.853 81.0427 364.288 80.8933 363.532 80.884L361.53 80.87V84.44L363.532 84.468Z" fill="black"/>
<path d="M633.041 65V49.904L635.081 51.872H629.921V48.2H637.793V65H633.041ZM647.736 65.336C646.296 65.336 645.016 64.992 643.896 64.304C642.792 63.616 641.92 62.624 641.28 61.328C640.64 60.032 640.32 58.456 640.32 56.6C640.32 54.744 640.64 53.168 641.28 51.872C641.92 50.576 642.792 49.584 643.896 48.896C645.016 48.208 646.296 47.864 647.736 47.864C649.16 47.864 650.424 48.208 651.528 48.896C652.648 49.584 653.528 50.576 654.168 51.872C654.808 53.168 655.128 54.744 655.128 56.6C655.128 58.456 654.808 60.032 654.168 61.328C653.528 62.624 652.648 63.616 651.528 64.304C650.424 64.992 649.16 65.336 647.736 65.336ZM647.736 61.448C648.248 61.448 648.696 61.288 649.08 60.968C649.48 60.648 649.792 60.136 650.016 59.432C650.24 58.712 650.352 57.768 650.352 56.6C650.352 55.416 650.24 54.472 650.016 53.768C649.792 53.064 649.48 52.552 649.08 52.232C648.696 51.912 648.248 51.752 647.736 51.752C647.224 51.752 646.768 51.912 646.368 52.232C645.984 52.552 645.672 53.064 645.432 53.768C645.208 54.472 645.096 55.416 645.096 56.6C645.096 57.768 645.208 58.712 645.432 59.432C645.672 60.136 645.984 60.648 646.368 60.968C646.768 61.288 647.224 61.448 647.736 61.448ZM664.166 65.336C662.726 65.336 661.446 64.992 660.326 64.304C659.222 63.616 658.35 62.624 657.71 61.328C657.07 60.032 656.75 58.456 656.75 56.6C656.75 54.744 657.07 53.168 657.71 51.872C658.35 50.576 659.222 49.584 660.326 48.896C661.446 48.208 662.726 47.864 664.166 47.864C665.59 47.864 666.854 48.208 667.958 48.896C669.078 49.584 669.958 50.576 670.598 51.872C671.238 53.168 671.558 54.744 671.558 56.6C671.558 58.456 671.238 60.032 670.598 61.328C669.958 62.624 669.078 63.616 667.958 64.304C666.854 64.992 665.59 65.336 664.166 65.336ZM664.166 61.448C664.678 61.448 665.126 61.288 665.51 60.968C665.91 60.648 666.222 60.136 666.446 59.432C666.67 58.712 666.782 57.768 666.782 56.6C666.782 55.416 666.67 54.472 666.446 53.768C666.222 53.064 665.91 52.552 665.51 52.232C665.126 51.912 664.678 51.752 664.166 51.752C663.654 51.752 663.198 51.912 662.798 52.232C662.414 52.552 662.102 53.064 661.862 53.768C661.638 54.472 661.526 55.416 661.526 56.6C661.526 57.768 661.638 58.712 661.862 59.432C662.102 60.136 662.414 60.648 662.798 60.968C663.198 61.288 663.654 61.448 664.166 61.448ZM680.595 65.336C679.155 65.336 677.875 64.992 676.755 64.304C675.651 63.616 674.779 62.624 674.139 61.328C673.499 60.032 673.179 58.456 673.179 56.6C673.179 54.744 673.499 53.168 674.139 51.872C674.779 50.576 675.651 49.584 676.755 48.896C677.875 48.208 679.155 47.864 680.595 47.864C682.019 47.864 683.283 48.208 684.387 48.896C685.507 49.584 686.387 50.576 687.027 51.872C687.667 53.168 687.987 54.744 687.987 56.6C687.987 58.456 687.667 60.032 687.027 61.328C686.387 62.624 685.507 63.616 684.387 64.304C683.283 64.992 682.019 65.336 680.595 65.336ZM680.595 61.448C681.107 61.448 681.555 61.288 681.939 60.968C682.339 60.648 682.651 60.136 682.875 59.432C683.099 58.712 683.211 57.768 683.211 56.6C683.211 55.416 683.099 54.472 682.875 53.768C682.651 53.064 682.339 52.552 681.939 52.232C681.555 51.912 681.107 51.752 680.595 51.752C680.083 51.752 679.627 51.912 679.227 52.232C678.843 52.552 678.531 53.064 678.291 53.768C678.067 54.472 677.955 55.416 677.955 56.6C677.955 57.768 678.067 58.712 678.291 59.432C678.531 60.136 678.843 60.648 679.227 60.968C679.627 61.288 680.083 61.448 680.595 61.448ZM697.025 65.336C695.585 65.336 694.305 64.992 693.185 64.304C692.081 63.616 691.209 62.624 690.569 61.328C689.929 60.032 689.609 58.456 689.609 56.6C689.609 54.744 689.929 53.168 690.569 51.872C691.209 50.576 692.081 49.584 693.185 48.896C694.305 48.208 695.585 47.864 697.025 47.864C698.449 47.864 699.713 48.208 700.817 48.896C701.937 49.584 702.817 50.576 703.457 51.872C704.097 53.168 704.417 54.744 704.417 56.6C704.417 58.456 704.097 60.032 703.457 61.328C702.817 62.624 701.937 63.616 700.817 64.304C699.713 64.992 698.449 65.336 697.025 65.336ZM697.025 61.448C697.537 61.448 697.985 61.288 698.369 60.968C698.769 60.648 699.081 60.136 699.305 59.432C699.529 58.712 699.641 57.768 699.641 56.6C699.641 55.416 699.529 54.472 699.305 53.768C699.081 53.064 698.769 52.552 698.369 52.232C697.985 51.912 697.537 51.752 697.025 51.752C696.513 51.752 696.057 51.912 695.657 52.232C695.273 52.552 694.961 53.064 694.721 53.768C694.497 54.472 694.385 55.416 694.385 56.6C694.385 57.768 694.497 58.712 694.721 59.432C694.961 60.136 695.273 60.648 695.657 60.968C696.057 61.288 696.513 61.448 697.025 61.448ZM602.41 86.664V80.322H598.602L598.518 82.142C598.5 82.6553 598.467 83.1687 598.42 83.682C598.374 84.186 598.299 84.6527 598.196 85.082C598.094 85.502 597.949 85.8427 597.762 86.104C597.585 86.3653 597.352 86.51 597.062 86.538L596.362 86.384C596.661 86.4027 596.904 86.2953 597.09 86.062C597.277 85.8193 597.422 85.4927 597.524 85.082C597.627 84.6713 597.702 84.2093 597.748 83.696C597.804 83.1733 597.846 82.6413 597.874 82.1L597.972 79.692H603.11V86.664H602.41ZM596.04 88.82V86.384H604.286V88.82H603.628V87H596.712V88.82H596.04ZM609.266 87.056C608.566 87.056 607.94 86.8973 607.39 86.58C606.848 86.2627 606.414 85.824 606.088 85.264C605.77 84.704 605.612 84.0647 605.612 83.346C605.612 82.618 605.77 81.9787 606.088 81.428C606.414 80.868 606.848 80.4293 607.39 80.112C607.94 79.7947 608.566 79.636 609.266 79.636C609.966 79.636 610.591 79.7947 611.142 80.112C611.692 80.4293 612.126 80.868 612.444 81.428C612.761 81.9787 612.92 82.618 612.92 83.346C612.92 84.0647 612.761 84.704 612.444 85.264C612.126 85.824 611.692 86.2627 611.142 86.58C610.591 86.8973 609.966 87.056 609.266 87.056ZM609.266 86.426C609.826 86.426 610.33 86.3 610.778 86.048C611.226 85.7867 611.576 85.4227 611.828 84.956C612.08 84.4893 612.206 83.9527 612.206 83.346C612.206 82.73 612.08 82.1933 611.828 81.736C611.576 81.2693 611.226 80.91 610.778 80.658C610.33 80.3967 609.826 80.266 609.266 80.266C608.706 80.266 608.202 80.3967 607.754 80.658C607.315 80.91 606.965 81.2693 606.704 81.736C606.452 82.1933 606.326 82.73 606.326 83.346C606.326 83.9527 606.452 84.4893 606.704 84.956C606.965 85.4227 607.315 85.7867 607.754 86.048C608.202 86.3 608.706 86.426 609.266 86.426ZM618.154 87.056C617.444 87.056 616.81 86.8973 616.25 86.58C615.699 86.2627 615.26 85.824 614.934 85.264C614.616 84.704 614.458 84.0647 614.458 83.346C614.458 82.618 614.616 81.974 614.934 81.414C615.26 80.854 615.699 80.42 616.25 80.112C616.81 79.7947 617.444 79.636 618.154 79.636C618.742 79.636 619.274 79.748 619.75 79.972C620.235 80.196 620.627 80.532 620.926 80.98L620.408 81.358C620.146 80.9847 619.82 80.7093 619.428 80.532C619.036 80.3547 618.611 80.266 618.154 80.266C617.584 80.266 617.071 80.3967 616.614 80.658C616.166 80.91 615.811 81.2693 615.55 81.736C615.298 82.1933 615.172 82.73 615.172 83.346C615.172 83.962 615.298 84.5033 615.55 84.97C615.811 85.4273 616.166 85.7867 616.614 86.048C617.071 86.3 617.584 86.426 618.154 86.426C618.611 86.426 619.036 86.3373 619.428 86.16C619.82 85.9827 620.146 85.7073 620.408 85.334L620.926 85.712C620.627 86.16 620.235 86.496 619.75 86.72C619.274 86.944 618.742 87.056 618.154 87.056ZM624.158 87V80.112L624.354 80.322H621.302V79.692H627.714V80.322H624.662L624.858 80.112V87H624.158ZM633.777 87V85.334L633.749 85.082V82.338C633.749 81.6567 633.563 81.1387 633.189 80.784C632.825 80.4293 632.289 80.252 631.579 80.252C631.075 80.252 630.604 80.3407 630.165 80.518C629.736 80.686 629.367 80.9053 629.059 81.176L628.709 80.672C629.073 80.3453 629.512 80.0933 630.025 79.916C630.539 79.7293 631.075 79.636 631.635 79.636C632.541 79.636 633.236 79.8647 633.721 80.322C634.207 80.7793 634.449 81.4607 634.449 82.366V87H633.777ZM631.145 87.056C630.604 87.056 630.133 86.972 629.731 86.804C629.339 86.6267 629.036 86.3793 628.821 86.062C628.616 85.7447 628.513 85.3807 628.513 84.97C628.513 84.5967 628.597 84.2607 628.765 83.962C628.943 83.654 629.232 83.4067 629.633 83.22C630.035 83.024 630.571 82.926 631.243 82.926H633.931V83.472H631.257C630.501 83.472 629.969 83.612 629.661 83.892C629.363 84.172 629.213 84.522 629.213 84.942C629.213 85.4087 629.391 85.782 629.745 86.062C630.1 86.342 630.599 86.482 631.243 86.482C631.859 86.482 632.377 86.342 632.797 86.062C633.227 85.782 633.544 85.376 633.749 84.844L633.945 85.32C633.749 85.852 633.413 86.2767 632.937 86.594C632.471 86.902 631.873 87.056 631.145 87.056ZM637.293 87V79.692H640.373C641.176 79.692 641.811 79.8507 642.277 80.168C642.744 80.4853 642.977 80.9473 642.977 81.554C642.977 82.1513 642.749 82.604 642.291 82.912C641.843 83.22 641.26 83.374 640.541 83.374L640.737 83.164C641.596 83.164 642.226 83.3227 642.627 83.64C643.029 83.9573 643.229 84.424 643.229 85.04C643.229 85.6653 643.001 86.1507 642.543 86.496C642.095 86.832 641.4 87 640.457 87H637.293ZM637.979 86.426H640.443C641.125 86.426 641.643 86.314 641.997 86.09C642.352 85.866 642.529 85.5067 642.529 85.012C642.529 84.508 642.371 84.144 642.053 83.92C641.745 83.6867 641.246 83.57 640.555 83.57H637.979V86.426ZM637.979 83.024H640.331C640.947 83.024 641.423 82.9073 641.759 82.674C642.105 82.4407 642.277 82.0953 642.277 81.638C642.277 81.1807 642.105 80.84 641.759 80.616C641.423 80.3827 640.947 80.266 640.331 80.266H637.979V83.024ZM644.273 86.972L644.343 86.37C644.399 86.3793 644.455 86.3933 644.511 86.412C644.576 86.4213 644.632 86.426 644.679 86.426C644.996 86.426 645.248 86.3093 645.435 86.076C645.622 85.8333 645.762 85.5113 645.855 85.11C645.958 84.7087 646.028 84.256 646.065 83.752C646.112 83.248 646.149 82.7347 646.177 82.212L646.303 79.692H651.427V87H650.727V80.098L650.923 80.322H646.751L646.933 80.084L646.821 82.268C646.784 82.9027 646.732 83.5093 646.667 84.088C646.602 84.6667 646.504 85.18 646.373 85.628C646.242 86.076 646.056 86.4307 645.813 86.692C645.57 86.944 645.258 87.07 644.875 87.07C644.782 87.07 644.684 87.0607 644.581 87.042C644.488 87.0233 644.385 87 644.273 86.972ZM657.475 87.056C656.738 87.056 656.085 86.8973 655.515 86.58C654.955 86.2627 654.512 85.824 654.185 85.264C653.868 84.704 653.709 84.0647 653.709 83.346C653.709 82.618 653.859 81.9787 654.157 81.428C654.465 80.868 654.885 80.4293 655.417 80.112C655.949 79.7947 656.547 79.636 657.209 79.636C657.872 79.636 658.465 79.79 658.987 80.098C659.519 80.406 659.935 80.84 660.233 81.4C660.541 81.9507 660.695 82.59 660.695 83.318C660.695 83.346 660.691 83.3787 660.681 83.416C660.681 83.444 660.681 83.4767 660.681 83.514H654.227V82.968H660.303L660.023 83.234C660.033 82.6647 659.911 82.156 659.659 81.708C659.417 81.2507 659.085 80.896 658.665 80.644C658.245 80.3827 657.76 80.252 657.209 80.252C656.668 80.252 656.183 80.3827 655.753 80.644C655.333 80.896 655.002 81.2507 654.759 81.708C654.517 82.156 654.395 82.6693 654.395 83.248V83.374C654.395 83.9713 654.526 84.5033 654.787 84.97C655.058 85.4273 655.427 85.7867 655.893 86.048C656.36 86.3 656.892 86.426 657.489 86.426C657.956 86.426 658.39 86.342 658.791 86.174C659.202 86.006 659.547 85.7493 659.827 85.404L660.233 85.866C659.916 86.258 659.515 86.5567 659.029 86.762C658.553 86.958 658.035 87.056 657.475 87.056ZM662.983 87V79.692H663.683V83.024H668.639V79.692H669.339V87H668.639V83.64H663.683V87H662.983ZM675.274 87.056C674.574 87.056 673.948 86.8973 673.398 86.58C672.856 86.2627 672.422 85.824 672.096 85.264C671.778 84.704 671.62 84.0647 671.62 83.346C671.62 82.618 671.778 81.9787 672.096 81.428C672.422 80.868 672.856 80.4293 673.398 80.112C673.948 79.7947 674.574 79.636 675.274 79.636C675.974 79.636 676.599 79.7947 677.15 80.112C677.7 80.4293 678.134 80.868 678.452 81.428C678.769 81.9787 678.928 82.618 678.928 83.346C678.928 84.0647 678.769 84.704 678.452 85.264C678.134 85.824 677.7 86.2627 677.15 86.58C676.599 86.8973 675.974 87.056 675.274 87.056ZM675.274 86.426C675.834 86.426 676.338 86.3 676.786 86.048C677.234 85.7867 677.584 85.4227 677.836 84.956C678.088 84.4893 678.214 83.9527 678.214 83.346C678.214 82.73 678.088 82.1933 677.836 81.736C677.584 81.2693 677.234 80.91 676.786 80.658C676.338 80.3967 675.834 80.266 675.274 80.266C674.714 80.266 674.21 80.3967 673.762 80.658C673.323 80.91 672.973 81.2693 672.712 81.736C672.46 82.1933 672.334 82.73 672.334 83.346C672.334 83.9527 672.46 84.4893 672.712 84.956C672.973 85.4227 673.323 85.7867 673.762 86.048C674.21 86.3 674.714 86.426 675.274 86.426ZM686.609 87.07C686.105 87.07 685.596 86.9907 685.083 86.832C684.57 86.6733 684.117 86.4307 683.725 86.104L683.991 85.586C684.346 85.8847 684.756 86.1087 685.223 86.258C685.69 86.398 686.156 86.4633 686.623 86.454C687.099 86.454 687.514 86.384 687.869 86.244C688.233 86.104 688.513 85.9127 688.709 85.67C688.905 85.4273 689.003 85.1567 689.003 84.858C689.003 84.4193 688.807 84.0787 688.415 83.836C688.023 83.5933 687.486 83.472 686.805 83.472H685.629V82.94H686.777C687.169 82.94 687.514 82.8887 687.813 82.786C688.121 82.6833 688.359 82.534 688.527 82.338C688.704 82.1327 688.793 81.8947 688.793 81.624C688.793 81.3253 688.69 81.0733 688.485 80.868C688.289 80.6533 688.018 80.4947 687.673 80.392C687.337 80.2893 686.959 80.238 686.539 80.238C686.175 80.2473 685.797 80.3033 685.405 80.406C685.022 80.5087 684.644 80.6627 684.271 80.868L684.047 80.308C684.458 80.084 684.873 79.916 685.293 79.804C685.713 79.692 686.138 79.6313 686.567 79.622C687.108 79.6127 687.603 79.6873 688.051 79.846C688.499 79.9953 688.854 80.2147 689.115 80.504C689.376 80.784 689.507 81.1247 689.507 81.526C689.507 81.89 689.395 82.2073 689.171 82.478C688.956 82.7393 688.658 82.9447 688.275 83.094C687.902 83.2433 687.482 83.318 687.015 83.318L687.071 83.094C687.911 83.094 688.56 83.2573 689.017 83.584C689.484 83.9107 689.717 84.3493 689.717 84.9C689.717 85.3387 689.577 85.7213 689.297 86.048C689.017 86.3747 688.639 86.6267 688.163 86.804C687.696 86.9813 687.178 87.07 686.609 87.07ZM696.736 87V85.334L696.708 85.082V82.338C696.708 81.6567 696.521 81.1387 696.148 80.784C695.784 80.4293 695.247 80.252 694.538 80.252C694.034 80.252 693.563 80.3407 693.124 80.518C692.695 80.686 692.326 80.9053 692.018 81.176L691.668 80.672C692.032 80.3453 692.471 80.0933 692.984 79.916C693.497 79.7293 694.034 79.636 694.594 79.636C695.499 79.636 696.195 79.8647 696.68 80.322C697.165 80.7793 697.408 81.4607 697.408 82.366V87H696.736ZM694.104 87.056C693.563 87.056 693.091 86.972 692.69 86.804C692.298 86.6267 691.995 86.3793 691.78 86.062C691.575 85.7447 691.472 85.3807 691.472 84.97C691.472 84.5967 691.556 84.2607 691.724 83.962C691.901 83.654 692.191 83.4067 692.592 83.22C692.993 83.024 693.53 82.926 694.202 82.926H696.89V83.472H694.216C693.46 83.472 692.928 83.612 692.62 83.892C692.321 84.172 692.172 84.522 692.172 84.942C692.172 85.4087 692.349 85.782 692.704 86.062C693.059 86.342 693.558 86.482 694.202 86.482C694.818 86.482 695.336 86.342 695.756 86.062C696.185 85.782 696.503 85.376 696.708 84.844L696.904 85.32C696.708 85.852 696.372 86.2767 695.896 86.594C695.429 86.902 694.832 87.056 694.104 87.056ZM705.642 87L702.506 83.346L703.094 83.01L706.482 87H705.642ZM700.252 87V79.692H700.952V87H700.252ZM700.728 83.612V83.01H703.024V83.612H700.728ZM703.136 83.416L702.492 83.304L705.488 79.692H706.258L703.136 83.416ZM712.637 87V85.334L712.609 85.082V82.338C712.609 81.6567 712.422 81.1387 712.049 80.784C711.685 80.4293 711.148 80.252 710.439 80.252C709.935 80.252 709.463 80.3407 709.025 80.518C708.595 80.686 708.227 80.9053 707.919 81.176L707.569 80.672C707.933 80.3453 708.371 80.0933 708.885 79.916C709.398 79.7293 709.935 79.636 710.495 79.636C711.4 79.636 712.095 79.8647 712.581 80.322C713.066 80.7793 713.309 81.4607 713.309 82.366V87H712.637ZM710.005 87.056C709.463 87.056 708.992 86.972 708.591 86.804C708.199 86.6267 707.895 86.3793 707.681 86.062C707.475 85.7447 707.373 85.3807 707.373 84.97C707.373 84.5967 707.457 84.2607 707.625 83.962C707.802 83.654 708.091 83.4067 708.493 83.22C708.894 83.024 709.431 82.926 710.103 82.926H712.791V83.472H710.117C709.361 83.472 708.829 83.612 708.521 83.892C708.222 84.172 708.073 84.522 708.073 84.942C708.073 85.4087 708.25 85.782 708.605 86.062C708.959 86.342 709.459 86.482 710.103 86.482C710.719 86.482 711.237 86.342 711.657 86.062C712.086 85.782 712.403 85.376 712.609 84.844L712.805 85.32C712.609 85.852 712.273 86.2767 711.797 86.594C711.33 86.902 710.733 87.056 710.005 87.056ZM717.781 87.07C717.277 87.07 716.768 86.9907 716.255 86.832C715.742 86.6733 715.289 86.4307 714.897 86.104L715.163 85.586C715.518 85.8847 715.928 86.1087 716.395 86.258C716.862 86.398 717.328 86.4633 717.795 86.454C718.271 86.454 718.686 86.384 719.041 86.244C719.405 86.104 719.685 85.9127 719.881 85.67C720.077 85.4273 720.175 85.1567 720.175 84.858C720.175 84.4193 719.979 84.0787 719.587 83.836C719.195 83.5933 718.658 83.472 717.977 83.472H716.801V82.94H717.949C718.341 82.94 718.686 82.8887 718.985 82.786C719.293 82.6833 719.531 82.534 719.699 82.338C719.876 82.1327 719.965 81.8947 719.965 81.624C719.965 81.3253 719.862 81.0733 719.657 80.868C719.461 80.6533 719.19 80.4947 718.845 80.392C718.509 80.2893 718.131 80.238 717.711 80.238C717.347 80.2473 716.969 80.3033 716.577 80.406C716.194 80.5087 715.816 80.6627 715.443 80.868L715.219 80.308C715.63 80.084 716.045 79.916 716.465 79.804C716.885 79.692 717.31 79.6313 717.739 79.622C718.28 79.6127 718.775 79.6873 719.223 79.846C719.671 79.9953 720.026 80.2147 720.287 80.504C720.548 80.784 720.679 81.1247 720.679 81.526C720.679 81.89 720.567 82.2073 720.343 82.478C720.128 82.7393 719.83 82.9447 719.447 83.094C719.074 83.2433 718.654 83.318 718.187 83.318L718.243 83.094C719.083 83.094 719.732 83.2573 720.189 83.584C720.656 83.9107 720.889 84.3493 720.889 84.9C720.889 85.3387 720.749 85.7213 720.469 86.048C720.189 86.3747 719.811 86.6267 719.335 86.804C718.868 86.9813 718.35 87.07 717.781 87.07ZM726.256 87.056C725.556 87.056 724.931 86.8973 724.38 86.58C723.839 86.2627 723.405 85.824 723.078 85.264C722.761 84.704 722.602 84.0647 722.602 83.346C722.602 82.618 722.761 81.9787 723.078 81.428C723.405 80.868 723.839 80.4293 724.38 80.112C724.931 79.7947 725.556 79.636 726.256 79.636C726.956 79.636 727.581 79.7947 728.132 80.112C728.683 80.4293 729.117 80.868 729.434 81.428C729.751 81.9787 729.91 82.618 729.91 83.346C729.91 84.0647 729.751 84.704 729.434 85.264C729.117 85.824 728.683 86.2627 728.132 86.58C727.581 86.8973 726.956 87.056 726.256 87.056ZM726.256 86.426C726.816 86.426 727.32 86.3 727.768 86.048C728.216 85.7867 728.566 85.4227 728.818 84.956C729.07 84.4893 729.196 83.9527 729.196 83.346C729.196 82.73 729.07 82.1933 728.818 81.736C728.566 81.2693 728.216 80.91 727.768 80.658C727.32 80.3967 726.816 80.266 726.256 80.266C725.696 80.266 725.192 80.3967 724.744 80.658C724.305 80.91 723.955 81.2693 723.694 81.736C723.442 82.1933 723.316 82.73 723.316 83.346C723.316 83.9527 723.442 84.4893 723.694 84.956C723.955 85.4227 724.305 85.7867 724.744 86.048C725.192 86.3 725.696 86.426 726.256 86.426ZM732.19 87V79.692H735.27C736.072 79.692 736.707 79.8507 737.174 80.168C737.64 80.4853 737.874 80.9473 737.874 81.554C737.874 82.1513 737.645 82.604 737.188 82.912C736.74 83.22 736.156 83.374 735.438 83.374L735.634 83.164C736.492 83.164 737.122 83.3227 737.524 83.64C737.925 83.9573 738.126 84.424 738.126 85.04C738.126 85.6653 737.897 86.1507 737.44 86.496C736.992 86.832 736.296 87 735.354 87H732.19ZM732.876 86.426H735.34C736.021 86.426 736.539 86.314 736.894 86.09C737.248 85.866 737.426 85.5067 737.426 85.012C737.426 84.508 737.267 84.144 736.95 83.92C736.642 83.6867 736.142 83.57 735.452 83.57H732.876V86.426ZM732.876 83.024H735.228C735.844 83.024 736.32 82.9073 736.656 82.674C737.001 82.4407 737.174 82.0953 737.174 81.638C737.174 81.1807 737.001 80.84 736.656 80.616C736.32 80.3827 735.844 80.266 735.228 80.266H732.876V83.024Z" fill="black"/>
<path d="M971.344 59.336C969.888 59.336 968.616 59.12 967.528 58.688C966.44 58.256 965.584 57.648 964.96 56.864C964.352 56.064 964.048 55.128 964.048 54.056C964.048 53 964.352 52.104 964.96 51.368C965.584 50.616 966.44 50.048 967.528 49.664C968.632 49.264 969.904 49.064 971.344 49.064C972.784 49.064 974.048 49.264 975.136 49.664C976.24 50.048 977.096 50.616 977.704 51.368C978.328 52.104 978.64 53 978.64 54.056C978.64 55.128 978.336 56.064 977.728 56.864C977.12 57.648 976.264 58.256 975.16 58.688C974.072 59.12 972.8 59.336 971.344 59.336ZM971.344 56C972.112 56 972.72 55.816 973.168 55.448C973.632 55.08 973.864 54.568 973.864 53.912C973.864 53.272 973.632 52.768 973.168 52.4C972.72 52.016 972.112 51.824 971.344 51.824C970.576 51.824 969.96 52.016 969.496 52.4C969.048 52.768 968.824 53.272 968.824 53.912C968.824 54.568 969.048 55.08 969.496 55.448C969.96 55.816 970.576 56 971.344 56ZM971.344 51.416C970.032 51.416 968.872 51.232 967.864 50.864C966.872 50.496 966.088 49.968 965.512 49.28C964.936 48.576 964.648 47.736 964.648 46.76C964.648 45.752 964.928 44.888 965.488 44.168C966.064 43.448 966.856 42.888 967.864 42.488C968.872 42.072 970.032 41.864 971.344 41.864C972.672 41.864 973.832 42.072 974.824 42.488C975.832 42.888 976.616 43.448 977.176 44.168C977.752 44.888 978.04 45.752 978.04 46.76C978.04 47.736 977.752 48.576 977.176 49.28C976.616 49.968 975.832 50.496 974.824 50.864C973.816 51.232 972.656 51.416 971.344 51.416ZM971.344 48.728C971.952 48.728 972.44 48.576 972.808 48.272C973.176 47.952 973.36 47.52 973.36 46.976C973.36 46.4 973.168 45.96 972.784 45.656C972.416 45.352 971.936 45.2 971.344 45.2C970.752 45.2 970.272 45.352 969.904 45.656C969.536 45.96 969.352 46.4 969.352 46.976C969.352 47.52 969.536 47.952 969.904 48.272C970.272 48.576 970.752 48.728 971.344 48.728ZM987.615 59.336C986.175 59.336 984.895 58.992 983.775 58.304C982.671 57.616 981.799 56.624 981.159 55.328C980.519 54.032 980.199 52.456 980.199 50.6C980.199 48.744 980.519 47.168 981.159 45.872C981.799 44.576 982.671 43.584 983.775 42.896C984.895 42.208 986.175 41.864 987.615 41.864C989.039 41.864 990.303 42.208 991.407 42.896C992.527 43.584 993.407 44.576 994.047 45.872C994.687 47.168 995.007 48.744 995.007 50.6C995.007 52.456 994.687 54.032 994.047 55.328C993.407 56.624 992.527 57.616 991.407 58.304C990.303 58.992 989.039 59.336 987.615 59.336ZM987.615 55.448C988.127 55.448 988.575 55.288 988.959 54.968C989.359 54.648 989.671 54.136 989.895 53.432C990.119 52.712 990.231 51.768 990.231 50.6C990.231 49.416 990.119 48.472 989.895 47.768C989.671 47.064 989.359 46.552 988.959 46.232C988.575 45.912 988.127 45.752 987.615 45.752C987.103 45.752 986.647 45.912 986.247 46.232C985.863 46.552 985.551 47.064 985.311 47.768C985.087 48.472 984.975 49.416 984.975 50.6C984.975 51.768 985.087 52.712 985.311 53.432C985.551 54.136 985.863 54.648 986.247 54.968C986.647 55.288 987.103 55.448 987.615 55.448ZM1004.04 59.336C1002.6 59.336 1001.32 58.992 1000.2 58.304C999.101 57.616 998.229 56.624 997.589 55.328C996.949 54.032 996.629 52.456 996.629 50.6C996.629 48.744 996.949 47.168 997.589 45.872C998.229 44.576 999.101 43.584 1000.2 42.896C1001.32 42.208 1002.6 41.864 1004.04 41.864C1005.47 41.864 1006.73 42.208 1007.84 42.896C1008.96 43.584 1009.84 44.576 1010.48 45.872C1011.12 47.168 1011.44 48.744 1011.44 50.6C1011.44 52.456 1011.12 54.032 1010.48 55.328C1009.84 56.624 1008.96 57.616 1007.84 58.304C1006.73 58.992 1005.47 59.336 1004.04 59.336ZM1004.04 55.448C1004.56 55.448 1005 55.288 1005.39 54.968C1005.79 54.648 1006.1 54.136 1006.32 53.432C1006.55 52.712 1006.66 51.768 1006.66 50.6C1006.66 49.416 1006.55 48.472 1006.32 47.768C1006.1 47.064 1005.79 46.552 1005.39 46.232C1005 45.912 1004.56 45.752 1004.04 45.752C1003.53 45.752 1003.08 45.912 1002.68 46.232C1002.29 46.552 1001.98 47.064 1001.74 47.768C1001.52 48.472 1001.4 49.416 1001.4 50.6C1001.4 51.768 1001.52 52.712 1001.74 53.432C1001.98 54.136 1002.29 54.648 1002.68 54.968C1003.08 55.288 1003.53 55.448 1004.04 55.448ZM1020.47 59.336C1019.03 59.336 1017.75 58.992 1016.63 58.304C1015.53 57.616 1014.66 56.624 1014.02 55.328C1013.38 54.032 1013.06 52.456 1013.06 50.6C1013.06 48.744 1013.38 47.168 1014.02 45.872C1014.66 44.576 1015.53 43.584 1016.63 42.896C1017.75 42.208 1019.03 41.864 1020.47 41.864C1021.9 41.864 1023.16 42.208 1024.27 42.896C1025.39 43.584 1026.27 44.576 1026.91 45.872C1027.55 47.168 1027.87 48.744 1027.87 50.6C1027.87 52.456 1027.55 54.032 1026.91 55.328C1026.27 56.624 1025.39 57.616 1024.27 58.304C1023.16 58.992 1021.9 59.336 1020.47 59.336ZM1020.47 55.448C1020.99 55.448 1021.43 55.288 1021.82 54.968C1022.22 54.648 1022.53 54.136 1022.75 53.432C1022.98 52.712 1023.09 51.768 1023.09 50.6C1023.09 49.416 1022.98 48.472 1022.75 47.768C1022.53 47.064 1022.22 46.552 1021.82 46.232C1021.43 45.912 1020.99 45.752 1020.47 45.752C1019.96 45.752 1019.51 45.912 1019.11 46.232C1018.72 46.552 1018.41 47.064 1018.17 47.768C1017.95 48.472 1017.83 49.416 1017.83 50.6C1017.83 51.768 1017.95 52.712 1018.17 53.432C1018.41 54.136 1018.72 54.648 1019.11 54.968C1019.51 55.288 1019.96 55.448 1020.47 55.448ZM971.173 81.056C970.473 81.056 969.848 80.8973 969.297 80.58C968.756 80.2627 968.322 79.824 967.995 79.264C967.678 78.704 967.519 78.0647 967.519 77.346C967.519 76.618 967.678 75.9787 967.995 75.428C968.322 74.868 968.756 74.4293 969.297 74.112C969.848 73.7947 970.473 73.636 971.173 73.636C971.873 73.636 972.498 73.7947 973.049 74.112C973.6 74.4293 974.034 74.868 974.351 75.428C974.668 75.9787 974.827 76.618 974.827 77.346C974.827 78.0647 974.668 78.704 974.351 79.264C974.034 79.824 973.6 80.2627 973.049 80.58C972.498 80.8973 971.873 81.056 971.173 81.056ZM971.173 80.426C971.733 80.426 972.237 80.3 972.685 80.048C973.133 79.7867 973.483 79.4227 973.735 78.956C973.987 78.4893 974.113 77.9527 974.113 77.346C974.113 76.73 973.987 76.1933 973.735 75.736C973.483 75.2693 973.133 74.91 972.685 74.658C972.237 74.3967 971.733 74.266 971.173 74.266C970.613 74.266 970.109 74.3967 969.661 74.658C969.222 74.91 968.872 75.2693 968.611 75.736C968.359 76.1933 968.233 76.73 968.233 77.346C968.233 77.9527 968.359 78.4893 968.611 78.956C968.872 79.4227 969.222 79.7867 969.661 80.048C970.109 80.3 970.613 80.426 971.173 80.426ZM978.163 81V74.112L978.359 74.322H975.307V73.692H981.719V74.322H978.667L978.863 74.112V81H978.163ZM984.792 81.07C984.288 81.07 983.779 80.9907 983.266 80.832C982.752 80.6733 982.3 80.4307 981.908 80.104L982.174 79.586C982.528 79.8847 982.939 80.1087 983.406 80.258C983.872 80.398 984.339 80.4633 984.806 80.454C985.282 80.454 985.697 80.384 986.052 80.244C986.416 80.104 986.696 79.9127 986.892 79.67C987.088 79.4273 987.186 79.1567 987.186 78.858C987.186 78.4193 986.99 78.0787 986.598 77.836C986.206 77.5933 985.669 77.472 984.988 77.472H983.812V76.94H984.96C985.352 76.94 985.697 76.8887 985.996 76.786C986.304 76.6833 986.542 76.534 986.71 76.338C986.887 76.1327 986.976 75.8947 986.976 75.624C986.976 75.3253 986.873 75.0733 986.668 74.868C986.472 74.6533 986.201 74.4947 985.856 74.392C985.52 74.2893 985.142 74.238 984.722 74.238C984.358 74.2473 983.98 74.3033 983.588 74.406C983.205 74.5087 982.827 74.6627 982.454 74.868L982.23 74.308C982.64 74.084 983.056 73.916 983.476 73.804C983.896 73.692 984.32 73.6313 984.75 73.622C985.291 73.6127 985.786 73.6873 986.234 73.846C986.682 73.9953 987.036 74.2147 987.298 74.504C987.559 74.784 987.69 75.1247 987.69 75.526C987.69 75.89 987.578 76.2073 987.354 76.478C987.139 76.7393 986.84 76.9447 986.458 77.094C986.084 77.2433 985.664 77.318 985.198 77.318L985.254 77.094C986.094 77.094 986.742 77.2573 987.2 77.584C987.666 77.9107 987.9 78.3493 987.9 78.9C987.9 79.3387 987.76 79.7213 987.48 80.048C987.2 80.3747 986.822 80.6267 986.346 80.804C985.879 80.9813 985.361 81.07 984.792 81.07ZM997.369 81V73.692H998.069V81H997.369ZM993.239 76.352C994.153 76.3613 994.844 76.562 995.311 76.954C995.787 77.3367 996.025 77.9013 996.025 78.648C996.025 79.4227 995.773 80.0153 995.269 80.426C994.765 80.8367 994.037 81.0373 993.085 81.028L990.355 81V73.692H991.055V76.324L993.239 76.352ZM993.057 80.468C993.803 80.4773 994.368 80.328 994.751 80.02C995.133 79.712 995.325 79.2547 995.325 78.648C995.325 78.06 995.133 77.6213 994.751 77.332C994.377 77.0427 993.813 76.8933 993.057 76.884L991.055 76.87V80.44L993.057 80.468ZM1001.07 81V73.692H1004.15C1004.96 73.692 1005.59 73.8507 1006.06 74.168C1006.52 74.4853 1006.76 74.9473 1006.76 75.554C1006.76 76.1513 1006.53 76.604 1006.07 76.912C1005.62 77.22 1005.04 77.374 1004.32 77.374L1004.52 77.164C1005.38 77.164 1006.01 77.3227 1006.41 77.64C1006.81 77.9573 1007.01 78.424 1007.01 79.04C1007.01 79.6653 1006.78 80.1507 1006.32 80.496C1005.88 80.832 1005.18 81 1004.24 81H1001.07ZM1001.76 80.426H1004.22C1004.9 80.426 1005.42 80.314 1005.78 80.09C1006.13 79.866 1006.31 79.5067 1006.31 79.012C1006.31 78.508 1006.15 78.144 1005.83 77.92C1005.53 77.6867 1005.03 77.57 1004.34 77.57H1001.76V80.426ZM1001.76 77.024H1004.11C1004.73 77.024 1005.2 76.9073 1005.54 76.674C1005.88 76.4407 1006.06 76.0953 1006.06 75.638C1006.06 75.1807 1005.88 74.84 1005.54 74.616C1005.2 74.3827 1004.73 74.266 1004.11 74.266H1001.76V77.024ZM1012.41 81.056C1011.71 81.056 1011.08 80.8973 1010.53 80.58C1009.99 80.2627 1009.56 79.824 1009.23 79.264C1008.91 78.704 1008.75 78.0647 1008.75 77.346C1008.75 76.618 1008.91 75.9787 1009.23 75.428C1009.56 74.868 1009.99 74.4293 1010.53 74.112C1011.08 73.7947 1011.71 73.636 1012.41 73.636C1013.11 73.636 1013.73 73.7947 1014.28 74.112C1014.83 74.4293 1015.27 74.868 1015.59 75.428C1015.9 75.9787 1016.06 76.618 1016.06 77.346C1016.06 78.0647 1015.9 78.704 1015.59 79.264C1015.27 79.824 1014.83 80.2627 1014.28 80.58C1013.73 80.8973 1013.11 81.056 1012.41 81.056ZM1012.41 80.426C1012.97 80.426 1013.47 80.3 1013.92 80.048C1014.37 79.7867 1014.72 79.4227 1014.97 78.956C1015.22 78.4893 1015.35 77.9527 1015.35 77.346C1015.35 76.73 1015.22 76.1933 1014.97 75.736C1014.72 75.2693 1014.37 74.91 1013.92 74.658C1013.47 74.3967 1012.97 74.266 1012.41 74.266C1011.85 74.266 1011.34 74.3967 1010.9 74.658C1010.46 74.91 1010.11 75.2693 1009.85 75.736C1009.59 76.1933 1009.47 76.73 1009.47 77.346C1009.47 77.9527 1009.59 78.4893 1009.85 78.956C1010.11 79.4227 1010.46 79.7867 1010.9 80.048C1011.34 80.3 1011.85 80.426 1012.41 80.426ZM1018.34 81V73.692H1021.42C1022.22 73.692 1022.86 73.8507 1023.33 74.168C1023.79 74.4853 1024.03 74.9473 1024.03 75.554C1024.03 76.1513 1023.8 76.604 1023.34 76.912C1022.89 77.22 1022.31 77.374 1021.59 77.374L1021.79 77.164C1022.64 77.164 1023.27 77.3227 1023.68 77.64C1024.08 77.9573 1024.28 78.424 1024.28 79.04C1024.28 79.6653 1024.05 80.1507 1023.59 80.496C1023.14 80.832 1022.45 81 1021.51 81H1018.34ZM1019.03 80.426H1021.49C1022.17 80.426 1022.69 80.314 1023.05 80.09C1023.4 79.866 1023.58 79.5067 1023.58 79.012C1023.58 78.508 1023.42 78.144 1023.1 77.92C1022.79 77.6867 1022.29 77.57 1021.6 77.57H1019.03V80.426ZM1019.03 77.024H1021.38C1022 77.024 1022.47 76.9073 1022.81 76.674C1023.15 76.4407 1023.33 76.0953 1023.33 75.638C1023.33 75.1807 1023.15 74.84 1022.81 74.616C1022.47 74.3827 1022 74.266 1021.38 74.266H1019.03V77.024Z" fill="black"/>
<defs>
<linearGradient id="paint0_linear_12_181" x1="662.5" y1="1.49576e-07" x2="663" y2="155" gradientUnits="userSpaceOnUse">
<stop stop-color="#BEC2C9"/>
<stop offset="1" stop-color="#BEC2C9" stop-opacity="0"/>
</linearGradient>
</defs>
</svg>
